name C:\Users\u0101727\Documents\MyRepositories\upper-imu-dc\Results\main_tracking\Case_60\kinematics.mot
datacolumns 10
datarows 42
range 7.88000000 8.29000000
endheader 
time	clav_prot	clav_elev	scapula_abduction	scapula_elevation	scapula_upward_rot	scapula_winging	plane_elv	shoulder_elv	axial_rot	
          7.88000000	        -42.68912918	          5.30178848	        -17.48507366	         -5.25442979	         55.74076818	        -11.27793948	         37.02655749	         73.73247800	        -10.60014283	
          7.89000000	        -42.53984329	          5.32969828	        -17.68432738	         -5.20273306	         55.20054906	        -11.17468216	         37.09645641	         73.42137842	        -10.37547605	
          7.90000000	        -42.38867312	          5.35519232	        -17.88127653	         -5.15076396	         54.65896597	        -11.06746490	         37.16216880	         73.10470061	        -10.15593040	
          7.91000000	        -42.23596365	          5.37819533	        -18.07591346	         -5.09861134	         54.11662951	        -10.95650296	         37.22223534	         72.78284330	         -9.94273135	
          7.92000000	        -42.08208592	          5.39867154	        -18.26824308	         -5.04634960	         53.57419800	        -10.84205152	         37.27517364	         72.45627873	         -9.73709105	
          7.93000000	        -41.92743136	          5.41662840	        -18.45827962	         -4.99403635	         53.03237292	        -10.72440362	         37.31950052	         72.12554896	         -9.54018601	
          7.94000000	        -41.77240607	          5.43211840	        -18.64604545	         -4.94171098	         52.49189116	        -10.60388709	         37.35375784	         71.79125891	         -9.35312911	
          7.95000000	        -41.61742528	          5.44523864	        -18.83157210	         -4.88939437	         51.95351375	        -10.48086017	         37.37654054	         71.45406563	         -9.17693741	
          7.96000000	        -41.46290760	          5.45612752	        -19.01490289	         -4.83709009	         51.41801131	        -10.35570571	         37.38652505	         71.11466382	         -9.01249895	
          7.97000000	        -41.30926932	          5.46495826	        -19.19609610	         -4.78478730	         50.88614728	        -10.22882365	         37.38249663	         70.77376797	         -8.86054196	
          7.98000000	        -41.15691862	          5.47192930	        -19.37522774	         -4.73246534	         50.35866011	        -10.10062217	         37.36337465	         70.43209196	         -8.72160909	
          7.99000000	        -41.00624948	          5.47725157	        -19.55239259	         -4.68010013	         49.83624571	         -9.97150734	         37.32823368	         70.09032725	         -8.59604043	
          8.00000000	        -40.85763568	          5.48113394	        -19.72770342	         -4.62767157	         49.31954100	         -9.84187220	         37.27631889	         69.74912081	         -8.48396682	
          8.01000000	        -40.71142475	          5.48376840	        -19.90128766	         -4.57517106	         48.80911041	         -9.71208602	         37.20705334	         69.40905522	         -8.38531479	
          8.02000000	        -40.56793163	          5.48531768	        -20.07328091	         -4.52260743	         48.30543643	         -9.58248474	         37.12003784	         69.07063340	         -8.29982143	
          8.03000000	        -40.42743240	          5.48590714	        -20.24381746	         -4.47001031	         47.80891540	         -9.45336357	         37.01504409	         68.73426950	         -8.22705668	
          8.04000000	        -40.29015842	          5.48562160	        -20.41301928	         -4.41743043	         47.31985816	         -9.32497224	         36.89200306	         68.40028609	         -8.16644922	
          8.05000000	        -40.15629190	          5.48450610	        -20.58098525	         -4.36493781	         46.83849469	         -9.19751305	         36.75099050	         68.06891661	         -8.11731363	
          8.06000000	        -40.02596359	          5.48256970	        -20.74778230	         -4.31261842	         46.36498172	         -9.07114146	         36.59221209	         67.74031111	         -8.07887596	
          8.07000000	        -39.89925242	          5.47979104	        -20.91343865	         -4.26057006	         45.89941234	         -8.94596880	         36.41598998	         67.41454396	         -8.05029722	
          8.08000000	        -39.77618717	          5.47612447	        -21.07793959	         -4.20889839	         45.44182676	         -8.82206637	         36.22275121	         67.09162224	         -8.03069432	
          8.09000000	        -39.65674949	          5.47150644	        -21.24122553	         -4.15771308	         44.99222301	         -8.69947042	         36.01301811	         66.77149376	         -8.01915845	
          8.10000000	        -39.54087789	          5.46586148	        -21.40319232	         -4.10712436	         44.55056671	         -8.57818750	         35.78739958	         66.45405419	         -8.01477144	
          8.11000000	        -39.42847223	          5.45910758	        -21.56369328	         -4.05724013	         44.11679937	         -8.45819952	         35.54658186	         66.13915307	         -8.01662084	
          8.12000000	        -39.31939833	          5.45116083	        -21.72254266	         -4.00816344	         43.69084504	         -8.33946861	         35.29131816	         65.82659901	         -8.02381408	
          8.13000000	        -39.21349244	          5.44193924	        -21.87951962	         -3.95999062	         43.27261561	         -8.22194124	         35.02241705	         65.51616431	         -8.03549195	
          8.14000000	        -39.11056515	          5.43136558	        -22.03437204	         -3.91280992	         42.86201495	         -8.10555167	         34.74073024	         65.20758924	         -8.05084134	
          8.15000000	        -39.01040460	          5.41936917	        -22.18681986	         -3.86670071	         42.45894170	         -7.99022453	         34.44714063	         64.90058584	         -8.06910607	
          8.16000000	        -38.91277867	          5.40588674	        -22.33655783	         -3.82173323	         42.06329062	         -7.87587625	         34.14255084	         64.59484125	         -8.08959539	
          8.17000000	        -38.81743634	          5.39086228	        -22.48325796	         -3.77796861	         41.67495193	         -7.76241563	         33.82787187	         64.29002050	         -8.11168941	
          8.18000000	        -38.72410821	          5.37424619	        -22.62657204	         -3.73545923	         41.29380875	         -7.64974330	         33.50401136	         63.98576882	         -8.13484135	
          8.19000000	        -38.63250668	          5.35599357	        -22.76613447	         -3.69424925	         40.91973279	         -7.53775055	         33.17186078	         63.68171395	         -8.15857713	
          8.20000000	        -38.54232618	          5.33606186	        -22.90156573	         -3.65437555	         40.55257917	         -7.42631779	         32.83228207	         63.37746824	         -8.18249283	
          8.21000000	        -38.45324421	          5.31440754	        -23.03247683	         -3.61586927	         40.19218089	         -7.31531294	         32.48609421	         63.07263078	         -8.20625100	
          8.22000000	        -38.36492342	          5.29098229	        -23.15847488	         -3.57875781	         39.83834369	         -7.20459034	         32.13406038	         62.76678937	         -8.22957610	
          8.23000000	        -38.27701518	          5.26572888	        -23.27917017	         -3.54306717	         39.49084178	         -7.09399023	         31.77687607	         62.45952254	         -8.25224957	
          8.24000000	        -38.18916423	          5.23857762	        -23.39418412	         -3.50882425	         39.14941469	         -6.98333925	         31.41515845	         62.15040198	         -8.27410452	
          8.25000000	        -38.10101420	          5.20944382	        -23.50315796	         -3.47605856	         38.81376555	         -6.87245173	         31.04943773	         61.83899561	         -8.29501967	
          8.26000000	        -38.01221328	          5.17822693	        -23.60576116	         -3.44480304	         38.48356060	         -6.76113188	         30.68015110	         61.52487143	         -8.31491200	
          8.27000000	        -37.92241977	          5.14481147	        -23.70169954	         -3.41509376	         38.15842987	         -6.64917655	         30.30764050	         61.20760187	         -8.33372714	
          8.28000000	        -37.83130730	          5.10906959	        -23.79072302	         -3.38696860	         37.83796853	         -6.53637848	         29.93215544	         60.88676796	         -8.35142738	
          8.29000000	        -37.73856998	          5.07086492	        -23.87263284	         -3.36046517	         37.52173935	         -6.42253001	         29.55386152	         60.56196292	         -8.36797767	
